HIERARCHY
ROOT Hips
{
 OFFSET 0.000000 0.000000 0.000000
 CHANNELS 6 Xposition Yposition Zposition Yrotation Xrotation Zrotation
 JOINT Chest
 {
  OFFSET 0.000000 9.585900 0.002600
  CHANNELS 3 Yrotation Xrotation Zrotation
  JOINT Chest2
  {
   OFFSET 0.000000 9.601200 -0.005300
   CHANNELS 3 Yrotation Xrotation Zrotation
   JOINT Chest3
   {
    OFFSET 0.000000 9.561800 0.000000
    CHANNELS 3 Yrotation Xrotation Zrotation
    JOINT Chest4
    {
     OFFSET 0.000000 9.552100 0.000000
     CHANNELS 3 Yrotation Xrotation Zrotation
     JOINT Neck
     {
      OFFSET 0.000000 14.453000 0.000000
      CHANNELS 3 Yrotation Xrotation Zrotation
      JOINT Head
      {
       OFFSET 0.000000 8.936500 -0.011300
       CHANNELS 3 Yrotation Xrotation Zrotation
       End Site
       {
        OFFSET 0.000000 17.073600 -0.006000
       }
      }
     }
     JOINT RightCollar
     {
      OFFSET -2.921100 9.558500 0.000000
      CHANNELS 3 Yrotation Xrotation Zrotation
      JOINT RightShoulder
      {
       OFFSET -13.519700 0.000000 0.000000
       CHANNELS 3 Yrotation Xrotation Zrotation
       JOINT RightElbow
       {
        OFFSET 0.000000 -29.696600 0.000000
        CHANNELS 3 Yrotation Xrotation Zrotation
        JOINT RightWrist
        {
         OFFSET 0.000000 -24.004700 0.000000
         CHANNELS 3 Yrotation Xrotation Zrotation
         End Site
         {
          OFFSET 0.000000 -17.728500 0.000000
         }
        }
       }
      }
     }
     JOINT LeftCollar
     {
      OFFSET 2.921100 9.558500 0.000000
      CHANNELS 3 Yrotation Xrotation Zrotation
      JOINT LeftShoulder
      {
       OFFSET 13.519700 0.000000 0.000000
       CHANNELS 3 Yrotation Xrotation Zrotation
       JOINT LeftElbow
       {
        OFFSET 0.000000 -29.696600 0.000000
        CHANNELS 3 Yrotation Xrotation Zrotation
        JOINT LeftWrist
        {
         OFFSET 0.000000 -24.004700 0.000000
         CHANNELS 3 Yrotation Xrotation Zrotation
         End Site
         {
          OFFSET 0.000000 -17.728500 0.000000
         }
        }
       }
      }
     }
    }
   }
  }
 }
 JOINT RightHip
 {
  OFFSET -7.771700 -0.012900 -0.001300
  CHANNELS 3 Yrotation Xrotation Zrotation
  JOINT RightKnee
  {
   OFFSET 0.000000 -40.869800 0.001200
   CHANNELS 3 Yrotation Xrotation Zrotation
   JOINT RightAnkle
   {
    OFFSET 0.000000 -39.717900 0.002100
    CHANNELS 3 Yrotation Xrotation Zrotation
    JOINT RightToe
    {
     OFFSET 0.000000 -4.965400 11.033500
     CHANNELS 3 Yrotation Xrotation Zrotation
     End Site
     {
      OFFSET 0.000000 -1.423100 5.872300
     }
    }
   }
  }
 }
 JOINT LeftHip
 {
  OFFSET 7.771700 -0.012900 -0.001300
  CHANNELS 3 Yrotation Xrotation Zrotation
  JOINT LeftKnee
  {
   OFFSET 0.000000 -40.869800 0.001200
   CHANNELS 3 Yrotation Xrotation Zrotation
   JOINT LeftAnkle
   {
    OFFSET 0.000000 -39.717900 0.002100
    CHANNELS 3 Yrotation Xrotation Zrotation
    JOINT LeftToe
    {
     OFFSET 0.000000 -4.965400 11.033500
     CHANNELS 3 Yrotation Xrotation Zrotation
     End Site
     {
      OFFSET 0.000000 -1.423100 5.872300
     }
    }
   }
  }
 }
}
MOTION
Frames: 11
Frame Time: 0.008333
-0.559111 52.255418 35.750504 171.296359 -39.289203 -2.298993 2.984587 22.166683 2.292481 0.353142 3.088296 0.418106 0.592635 5.019532 0.690154 2.571480 18.618256 2.912258 2.321694 15.713029 -0.867397 4.626480 -6.560831 -2.454289 -5.011387 0.051139 -2.542749 -2.453124 -1.633652 3.148575 147.683323 -70.744206 -134.101340 3.928413 -10.522891 -8.266134 -5.336293 1.188458 -0.576870 0.191300 -7.132318 2.091509 167.433915 -72.278691 174.341346 -9.581157 -23.101225 31.311648 -4.885161 -41.735040 3.682335 -158.236738 87.159589 -153.798748 -0.338334 -11.013952 -2.871613 0.046117 -0.211349 0.019106 -0.097398 -38.474565 6.284292 69.741759 83.318119 59.433581 -5.694481 -12.510086 9.797437 0.479943 1.587422 0.221133
-0.554671 52.256099 35.751024 171.297073 -39.285446 -2.302940 2.994078 22.173409 2.300680 0.357409 3.096214 0.419972 0.596241 5.025128 0.692211 2.562100 18.601025 2.910696 2.336490 15.723151 -0.865055 4.677810 -6.529061 -2.454420 -5.021572 0.063510 -2.548889 -2.485622 -1.581010 3.072144 147.867663 -70.793976 -134.261091 3.927209 -10.536306 -8.297969 -5.306829 1.212942 -0.531032 0.120580 -7.427692 2.047182 168.015558 -72.027712 173.849718 -9.616924 -23.249093 31.493311 -4.898509 -41.735751 3.692912 -158.224660 87.161248 -153.784623 -0.334758 -11.015107 -2.881228 0.044183 -0.212497 0.019561 -0.101959 -38.475538 6.294032 69.713348 83.318532 59.403108 -5.689536 -12.515198 9.793514 0.476485 1.590322 0.222408
-0.556301 52.252935 35.755287 171.321676 -39.244878 -2.288075 2.962971 22.138804 2.266990 0.369284 3.117556 0.425246 0.597025 5.026677 0.693745 2.574196 18.606457 2.915698 2.331565 15.709172 -0.865422 4.732269 -6.485224 -2.451745 -5.040195 0.111074 -2.566879 -2.509676 -1.627148 3.051904 147.979575 -70.853250 -134.359986 3.918497 -10.546845 -8.331105 -5.295428 1.209708 -0.482938 0.054338 -7.740037 1.992906 168.634559 -71.738043 173.316961 -9.640824 -23.408121 31.649357 -4.909929 -41.782825 3.665807 -158.294611 87.153290 -153.862485 -0.336192 -11.020487 -2.883716 0.047378 -0.211355 0.019922 -0.099985 -38.512289 6.261225 69.677989 83.311948 59.367853 -5.743109 -12.537958 9.783494 0.514143 1.624577 0.239553
-0.553088 52.253001 35.756641 171.320195 -39.233963 -2.281834 2.970825 22.144971 2.266627 0.369599 3.116420 0.428587 0.599747 5.031549 0.695324 2.591410 18.620241 2.921389 2.348015 15.719302 -0.861604 4.769754 -6.457394 -2.446454 -5.063222 0.095320 -2.570871 -2.521986 -1.613800 3.017296 148.121603 -70.912670 -134.491741 3.936650 -10.578629 -8.355220 -5.273075 1.196063 -0.438072 -0.018669 -8.062373 1.937877 169.273998 -71.405287 172.763844 -9.659259 -23.578435 31.784992 -4.907154 -41.793977 3.662320 -158.297581 87.151336 -153.861390 -0.333373 -11.023267 -2.889079 0.046670 -0.210969 0.019505 -0.101343 -38.518671 6.264424 69.633274 83.308573 59.317246 -5.754784 -12.541019 9.780228 0.515235 1.629482 0.242098
-0.549509 52.253872 35.756948 171.317963 -39.230983 -2.275895 2.994110 22.179051 2.290297 0.351112 3.084183 0.410950 0.612831 5.059062 0.707161 2.602255 18.625375 2.925690 2.406522 15.776343 -0.842948 4.771517 -6.470290 -2.451161 -5.088377 0.076348 -2.578458 -2.527835 -1.617458 3.001358 148.207748 -70.970556 -134.567813 3.952098 -10.608167 -8.378290 -5.256627 1.174966 -0.404986 -0.079744 -8.399793 1.884298 169.931844 -71.030411 172.196223 -9.677791 -23.761227 31.908799 -4.901947 -41.795769 3.659399 -158.264990 87.150183 -153.825226 -0.328190 -11.028251 -2.894450 0.043471 -0.209274 0.020253 -0.105500 -38.514480 6.269839 69.582471 83.306113 59.258126 -5.763452 -12.550519 9.776888 0.527378 1.638086 0.244976
-0.546817 52.254000 35.757673 171.323034 -39.222219 -2.269545 2.996717 22.193799 2.295937 0.355124 3.085882 0.410917 0.617087 5.080144 0.715396 2.626576 18.663114 2.946411 2.421129 15.770476 -0.846083 4.802464 -6.458573 -2.456499 -5.117666 0.035352 -2.596086 -2.540400 -1.616468 2.959644 148.399449 -71.005623 -134.762806 3.916429 -10.613288 -8.399465 -5.249604 1.111064 -0.384828 -0.140062 -8.763122 1.821943 170.618337 -70.615481 171.601043 -9.703279 -23.957449 32.032489 -4.899517 -41.805731 3.653389 -158.351275 87.148687 -153.911126 -0.334024 -11.030140 -2.896950 0.041719 -0.210570 0.021407 -0.111496 -38.518955 6.264599 69.549094 83.299195 59.219696 -5.771110 -12.552657 9.772301 0.534930 1.637979 0.245060
-0.543323 52.254409 35.757750 171.314754 -39.218278 -2.258923 3.005608 22.202127 2.298132 0.361788 3.102732 0.419017 0.617370 5.091453 0.719305 2.640471 18.689248 2.963256 2.440196 15.773234 -0.849572 4.850221 -6.429307 -2.461031 -5.123565 0.013154 -2.612788 -2.552921 -1.616569 2.920719 148.550963 -71.020890 -134.931369 3.855205 -10.584436 -8.412952 -5.226159 1.065492 -0.372002 -0.198209 -9.145822 1.756170 171.350978 -70.154006 170.961072 -9.736719 -24.161698 32.162512 -4.891281 -41.810928 3.654264 -158.376479 87.148121 -153.936581 -0.338646 -11.032574 -2.898568 0.043779 -0.211115 0.021170 -0.109591 -38.520148 6.261417 69.548351 83.294661 59.216396 -5.768613 -12.553933 9.768751 0.530013 1.635899 0.242242
-0.539871 52.254326 35.757833 171.313552 -39.212218 -2.252740 3.008433 22.209207 2.300111 0.367260 3.122256 0.427579 0.616199 5.098561 0.724005 2.645986 18.702781 2.972445 2.469202 15.792631 -0.847839 4.902890 -6.392156 -2.467323 -5.117713 0.010389 -2.627236 -2.564346 -1.634632 2.894338 148.609192 -71.018229 -135.014556 3.846765 -10.592219 -8.411382 -5.165866 1.051254 -0.328086 -0.275911 -9.561424 1.652974 172.134501 -69.642622 170.277735 -9.770144 -24.365771 32.290702 -4.888145 -41.818089 3.658795 -158.286198 87.142415 -153.849259 -0.343841 -11.035753 -2.897713 0.045380 -0.212360 0.020938 -0.114334 -38.524932 6.258907 69.513235 83.297824 59.177351 -5.753861 -12.551370 9.765434 0.523973 1.632397 0.239921
-0.534563 52.254630 35.757181 171.311832 -39.212559 -2.257064 3.020025 22.256402 2.340358 0.366500 3.105113 0.412025 0.614589 5.106414 0.729379 2.649585 18.716023 2.981280 2.500894 15.817265 -0.847713 4.960932 -6.344997 -2.477324 -5.106531 0.011512 -2.647447 -2.580519 -1.664607 2.878669 148.607792 -71.003243 -135.039120 3.829861 -10.596050 -8.405664 -5.161465 1.007472 -0.335980 -0.298664 -9.959836 1.591496 172.961860 -69.087076 169.559703 -9.799863 -24.567664 32.410666 -4.892158 -41.815453 3.676679 -158.405353 87.144113 -153.968892 -0.356719 -11.039449 -2.906204 0.044373 -0.212161 0.027097 -0.125061 -38.524468 6.268662 69.529148 83.297437 59.197294 -5.754266 -12.551965 9.754639 0.534043 1.630787 0.241270
-0.528616 52.254797 35.756162 171.299395 -39.215405 -2.259065 3.034629 22.269747 2.359982 0.371998 3.150980 0.442005 0.611646 5.086779 0.713034 2.643183 18.704574 2.973006 2.545887 15.871012 -0.833012 5.022048 -6.289462 -2.490579 -5.078273 0.066151 -2.650231 -2.605648 -1.716947 2.858986 148.602337 -70.976695 -135.065503 3.837328 -10.579525 -8.377349 -5.150465 0.989890 -0.333447 -0.321057 -10.366069 1.525257 173.827324 -68.489639 168.811650 -9.825474 -24.762289 32.522153 -4.891470 -41.811425 3.701241 -158.352231 87.142982 -153.916808 -0.362941 -11.041252 -2.907218 0.043915 -0.212228 0.027787 -0.125869 -38.522503 6.280195 69.521486 83.305284 59.200951 -5.748765 -12.554124 9.740481 0.540650 1.625731 0.243887
-0.525947 52.253696 35.755414 171.293553 -39.210369 -2.247640 3.036071 22.276278 2.359848 0.377215 3.168945 0.452814 0.612644 5.096111 0.716155 2.649196 18.730719 2.990847 2.574724 15.890534 -0.843743 5.084416 -6.229194 -2.505690 -5.084401 0.027891 -2.676036 -2.606791 -1.715954 2.844855 148.598449 -70.946527 -135.095225 3.854988 -10.567412 -8.339951 -5.137711 0.933879 -0.341434 -0.358718 -10.775131 1.447970 174.702889 -67.848295 168.059834 -9.845117 -24.943837 32.626518 -4.881724 -41.819751 3.699733 -158.318920 87.135620 -153.885475 -0.364255 -11.045622 -2.907352 0.043969 -0.212089 0.028147 -0.127275 -38.527390 6.274059 69.525916 83.306498 59.200804 -5.738077 -12.550463 9.736923 0.538174 1.619815 0.242369
